<?xml version="1.0" encoding="UTF-8"?>
<svg id="Capa_2" xmlns="http://www.w3.org/2000/svg" viewBox="0 0 1876.57 908.65">
  <path d="M536.59,352.12c-3.17-15.26-16.7-26.73-32.89-26.73h-.01c-16.19,0-29.72,11.47-32.89,26.73-.46,2.22-.71,4.52-.71,6.88v17.41c0,3.28-2.66,5.93-5.93,5.93-5.29,0-9.58-4.29-9.58-9.58v-49.99c0-18.53-15.02-33.53-33.53-33.53s-33.53,15-33.53,33.53v35.98c0,4.31-3.5,7.81-7.81,7.81s-7.82-3.5-7.82-7.81v-69.45c0-19.96-16.18-36.13-36.13-36.13h-.01c-19.96,0-36.13,16.18-36.13,36.13v72.66c0,5.69-4.61,10.31-10.31,10.31s-10.31-4.61-10.31-10.31v-212.08c0-22.83-18.5-41.33-41.33-41.33s-41.33,18.5-41.33,41.33v354.24c-13.63-24.67-26.58-44.05-38.75-59.1-76.11-94.14-122.28-19.69-122.28-19.69,66.47,48.93,128.58,156.41,129.54,158.08.01.01.01.02.01.02,21.45,71.81,88.01,124.15,166.81,124.15h9.29v-103.18h-98.15v-103.31h103.31v98.15h139.47v56.87c31.94-31.89,51.71-75.97,51.71-124.68v-172.44c0-2.36-.24-4.66-.71-6.88Z" fill="#1c3444"/>
  <rect x="361.62" y="619.91" width="103.31" height="103.31" fill="#ec7c14"/>
  <rect x="268.64" y="749.04" width="87.04" height="87.04" fill="#ec7c14"/>
  <rect x="413.28" y="759.21" width="51.65" height="51.65" fill="#1c3444"/>
  <path d="M237.58,0c-65.17,0-118,52.82-118,117.99,0,37.09,17.11,70.16,43.85,91.78l18.17-29.92c-16.86-15.27-27.45-37.33-27.45-61.86,0-46.07,37.35-83.42,83.44-83.42s83.44,37.35,83.44,83.42c0,24.53-10.59,46.59-27.45,61.86l18.17,29.92c26.74-21.62,43.84-54.71,43.84-91.78C355.57,52.82,302.75,0,237.58,0Z" fill="#1c3444"/>
  <g>
    <path d="M790.39,428.12h-67.13l-36.13,216.02h-61.39l36.13-216.02h-67.19l8.4-50.59h195.9l-8.59,50.59Z" fill="#487c97"/>
    <path d="M981.99,644.13h-63.45l-8.58-58.59h-89.48l-25.66,58.59h-57.75l127.02-266.6h72.9l45,266.6ZM840.84,539.06h62.32l-15.6-106.64-46.72,106.64Z" fill="#487c97"/>
    <path d="M1219.1,442.96l-54.69,12.7c-6.25-22.13-21.42-33.2-45.51-33.2-11.2,0-20.09,2.67-26.66,8-6.58,5.33-9.86,11.77-9.86,19.31s2.67,13.26,8.01,17.16c5.34,3.9,15.56,7.74,30.66,11.51,21.74,5.47,38.87,11.22,51.37,17.27,12.5,6.05,22.1,14.51,28.81,25.37,6.71,10.86,10.06,24.11,10.06,39.72,0,25.11-9.25,46.09-27.73,62.94-18.49,16.85-44.79,25.27-78.91,25.27-29.17,0-53.42-6.74-72.75-20.21s-31.35-33.76-36.04-60.84l57.03-7.81c5.86,26.43,23.89,39.65,54.1,39.65,13.67,0,24.15-2.92,31.45-8.76,7.29-5.84,10.94-13.25,10.94-22.2s-2.77-14.77-8.31-18.6c-5.54-3.83-18.4-8.49-38.57-13.99-18.35-4.84-32.97-10.18-43.84-16.04-10.87-5.85-19.53-14.15-25.98-24.88-6.45-10.73-9.67-23-9.67-36.79,0-22.51,8.53-42.35,25.59-59.53,17.06-17.17,40.56-25.76,70.51-25.76,51.56,0,84.89,23.24,100,69.73Z" fill="#487c97"/>
    <path d="M1488.04,377.53l-84.22,95.75,51.68,170.85h-63.17l-33.82-123.95-52.49,59.86-10.74,64.08h-58.61l44.53-266.6h58.8l-21.02,125.27,8.39-10.73c4.81-6.24,9.04-11.51,12.68-15.8l85.47-98.73h62.5Z" fill="#487c97"/>
    <path d="M1592.78,377.53l-44.53,266.6h-61.39l44.53-266.6h61.38Z" fill="#487c97"/>
    <path d="M1715,648.24c-31.51,0-56.87-10.61-76.07-31.84-19.21-21.22-28.81-49.28-28.81-84.18,0-42.19,11.39-79.23,34.18-111.13,22.78-31.9,53.06-47.85,90.82-47.85,32.42,0,58.17,10.74,77.25,32.23,19.07,21.48,28.61,49.94,28.61,85.35,0,42.84-11.33,79.79-33.98,110.84s-53.32,46.58-91.99,46.58ZM1715.97,599.02c22.92,0,39.32-13.17,49.22-39.5,9.89-26.33,14.84-52.14,14.84-77.43,0-39.76-14.91-59.64-44.73-59.64-21.22,0-37.18,12.38-47.85,37.15-10.68,24.77-16.02,51.94-16.02,81.53,0,38.59,14.84,57.88,44.53,57.88Z" fill="#487c97"/>
  </g>
</svg>