<?xml version="1.0" encoding="UTF-8"?>
<svg id="Capa_2" xmlns="http://www.w3.org/2000/svg" viewBox="0 0 1876.57 908.65">
  <path d="M536.59,352.12c-3.17-15.26-16.7-26.73-32.89-26.73h-.01c-16.19,0-29.72,11.47-32.89,26.73-.46,2.22-.71,4.52-.71,6.88v17.41c0,3.28-2.66,5.93-5.93,5.93-5.29,0-9.58-4.29-9.58-9.58v-49.99c0-18.53-15.02-33.53-33.53-33.53s-33.53,15-33.53,33.53v35.98c0,4.31-3.5,7.81-7.81,7.81s-7.82-3.5-7.82-7.81v-69.45c0-19.96-16.18-36.13-36.13-36.13h-.01c-19.96,0-36.13,16.18-36.13,36.13v72.66c0,5.69-4.61,10.31-10.31,10.31s-10.31-4.61-10.31-10.31v-212.08c0-22.83-18.5-41.33-41.33-41.33s-41.33,18.5-41.33,41.33v354.24c-13.63-24.67-26.58-44.05-38.75-59.1-76.11-94.14-122.28-19.69-122.28-19.69,66.47,48.93,128.58,156.41,129.54,158.08.01.01.01.02.01.02,21.45,71.81,88.01,124.15,166.81,124.15h9.29v-103.18h-98.15v-103.31h103.31v98.15h139.47v56.87c31.94-31.89,51.71-75.97,51.71-124.68v-172.44c0-2.36-.24-4.66-.71-6.88Z" fill="#1C3240"/>
  <rect x="361.62" y="619.91" width="103.31" height="103.31" fill="#F27F1B"/>
  <rect x="268.64" y="749.04" width="87.04" height="87.04" fill="#F27F1B"/>
  <rect x="413.28" y="759.21" width="51.65" height="51.65" fill="#1C3240"/>
  <path d="M237.58,0c-65.17,0-118,52.82-118,117.99,0,37.09,17.11,70.16,43.85,91.78l18.17-29.92c-16.86-15.27-27.45-37.33-27.45-61.86,0-46.07,37.35-83.42,83.44-83.42s83.44,37.35,83.44,83.42c0,24.53-10.59,46.59-27.45,61.86l18.17,29.92c26.74-21.62,43.84-54.71,43.84-91.78C355.57,52.82,302.75,0,237.58,0Z" fill="#1C3240"/>
  <text transform="translate(575.15 644.13)" fill="#448AA6" font-family="'Montserrat', sans-serif" font-size="350" font-weight="800" font-style="italic">
    <tspan x="0" y="0">TASKIO</tspan>
  </text>
</svg>
